General
Complete name                    : The Host 2013 TS XviD MP3                                    WICKED.MIND.avi
Format                           : AVI
Format/Info                      : Audio Video Interleave
Format profile                   : OpenDML
File size                        : 1.15 GiB
Duration                         : 1h 54mn
Overall bit rate                 : 1 438 Kbps
Writing application              : Lavf52.57.1

Video
ID                               : 0
Format                           : MPEG-4 Visual
Codec ID                         : FMP4
Duration                         : 1h 54mn
Bit rate                         : 222 Kbps
Width                            : 848 pixels
Height                           : 480 pixels
Display aspect ratio             : 16:9
Frame rate                       : 23.976 fps
Color space                      : YUV
Chroma subsampling               : 4:2:0
Compression mode                 : Lossy
Bits/(Pixel*Frame)               : 0.023
Stream size                      : 182 MiB (15%)

Audio
ID                               : 1
Format                           : MPEG Audio
Format version                   : Version 1
Format profile                   : Layer 3
Mode                             : Joint stereo
Mode extension                   : MS Stereo
Codec ID                         : 55
Codec ID/Hint                    : MP3
Duration                         : 16mn 56s
Bit rate mode                    : Constant
Bit rate                         : 128 Kbps
Channel(s)                       : 2 channels
Sampling rate                    : 48.0 KHz
Compression mode                 : Lossy
Stream size                      : 15.5 MiB (1%)
Alignment                        : Aligned on interleaves
Interleave, duration             : 32 ms (0.77 video frame)

Storyline:

When an unseen enemy threatens mankind by taking over their bodies and erasing their memories, Melanie will risk everything to protect the people she cares most about, proving that love can conquer all in a dangerous new world.


Director:
Andrew Niccol
Writers:
Stephenie Meyer (novel), Andrew Niccol (screenplay)
Stars:
Saoirse Ronan, Diane Kruger, Max Irons